STARTFONT 2.1
FONT -FontForge-FreeSans-Medium-R-Normal-Sans-40-290-100-100-P-210-ISO10646-1
SIZE 29 100 100
FONTBOUNDINGBOX 39 40 -1 -9
COMMENT "Generated by fontforge, http://fontforge.sourceforge.net"
COMMENT "Copyleft 2002, 2003, 2005, 2008, 2009, 2010 Free Software Foundation."
STARTPROPERTIES 40
FOUNDRY "FontForge"
FAMILY_NAME "FreeSans"
WEIGHT_NAME "Medium"
SLANT "R"
SETWIDTH_NAME "Normal"
ADD_STYLE_NAME "Sans"
PIXEL_SIZE 40
POINT_SIZE 290
RESOLUTION_X 100
RESOLUTION_Y 100
SPACING "P"
AVERAGE_WIDTH 210
CHARSET_REGISTRY "ISO10646"
CHARSET_ENCODING "1"
FONTNAME_REGISTRY ""
CHARSET_COLLECTIONS "ASCII ISOLatin1Encoding ISO8859-2 ISO8859-5 ISO8859-7 ISO8859-9 ISO8859-8 ISO8859-4 ISO10646-1"
FONT_NAME "FreeSans"
FACE_NAME "Free Sans"
COPYRIGHT "Copyleft 2002, 2003, 2005, 2008, 2009, 2010 Free Software Foundation."
FONT_VERSION "$Revision: 1.344 $"
FONT_ASCENT 32
FONT_DESCENT 8
UNDERLINE_POSITION -8
UNDERLINE_THICKNESS 2
X_HEIGHT 20
CAP_HEIGHT 28
RAW_ASCENT 800
RAW_DESCENT 200
NORM_SPACE 11
RELATIVE_WEIGHT 40
RELATIVE_SETWIDTH 50
SUPERSCRIPT_X -6
SUPERSCRIPT_Y 19
SUPERSCRIPT_SIZE 27
SUBSCRIPT_X 1
SUBSCRIPT_Y 5
SUBSCRIPT_SIZE 27
FIGURE_WIDTH 22
AVG_LOWERCASE_WIDTH 212
AVG_UPPERCASE_WIDTH 282
ENDPROPERTIES
CHARS 96
STARTCHAR space
ENCODING 32
SWIDTH 278 0
DWIDTH 11 0
BBX 1 1 0 0
BITMAP
00
ENDCHAR
STARTCHAR exclam
ENCODING 33
SWIDTH 278 0
DWIDTH 11 0
BBX 3 29 5 0
BITMAP
E0
E0
E0
E0
E0
E0
E0
E0
E0
E0
E0
E0
E0
E0
E0
E0
E0
E0
E0
60
60
60
00
00
00
E0
E0
E0
E0
ENDCHAR
STARTCHAR quotedbl
ENCODING 34
SWIDTH 355 0
DWIDTH 14 0
BBX 10 9 2 19
BITMAP
F3C0
F3C0
F3C0
F3C0
F1C0
F1C0
61C0
6180
6180
ENDCHAR
STARTCHAR numbersign
ENCODING 35
SWIDTH 556 0
DWIDTH 22 0
BBX 21 29 1 -1
BITMAP
01C1C0
01C1C0
01C1C0
01C1C0
01C1C0
038380
038380
038380
7FFFF8
7FFFF8
7FFFF8
070700
070700
070700
070700
0F0700
0E0E00
0E0E00
FFFFE0
FFFFE0
0E0E00
1C1E00
1C1C00
1C1C00
1C1C00
1C1C00
1C1C00
383800
383800
ENDCHAR
STARTCHAR dollar
ENCODING 36
SWIDTH 556 0
DWIDTH 22 0
BBX 20 36 1 -5
BITMAP
006000
006000
00F000
07FE00
1FFF80
3F6F80
3C63C0
7861C0
7061E0
7060E0
706000
706000
786000
7C6000
3F6000
1FF000
0FFE00
03FF80
007FC0
0067E0
0061E0
0060F0
0060F0
F060F0
F060F0
F060E0
7060E0
7861E0
3C67C0
1FFF80
0FFF00
03FC00
006000
006000
006000
006000
ENDCHAR
STARTCHAR percent
ENCODING 37
SWIDTH 889 0
DWIDTH 36 0
BBX 33 29 1 -1
BITMAP
000001C000
0FC0038000
3FF0030000
7FF8070000
7038060000
E01C0E0000
E01C0C0000
E01C1C0000
E01C180000
E038380000
7038700000
7FF0700000
3FF0E00000
0FC0C00000
0001C00000
000180F800
000383FE00
000307FF00
0007070700
00060E0380
000E0E0380
000C0C0180
001C0E0180
00380E0380
00380E0380
0070078F00
006007FF00
00E001FC00
00C0007000
ENDCHAR
STARTCHAR ampersand
ENCODING 38
SWIDTH 667 0
DWIDTH 27 0
BBX 23 29 2 -1
BITMAP
01FC00
07FE00
0FFF00
0E0700
1E0780
1E0780
1E0780
0E0700
0F0F00
0F1F00
07BE00
03F800
03F000
07F000
1FF000
3E7838
7C3C38
781E78
F01F70
F00FF0
E007E0
F003E0
F001E0
F003F0
780FF8
7E1F78
3FFE3C
1FF81E
07E000
ENDCHAR
STARTCHAR quotesingle
ENCODING 39
SWIDTH 191 0
DWIDTH 8 0
BBX 4 9 2 19
BITMAP
F0
F0
F0
F0
F0
E0
E0
60
60
ENDCHAR
STARTCHAR parenleft
ENCODING 40
SWIDTH 333 0
DWIDTH 13 0
BBX 8 37 3 -8
BITMAP
03
07
06
0E
0C
1C
18
38
38
70
70
70
70
F0
E0
E0
E0
E0
E0
E0
E0
E0
E0
F0
70
70
70
70
38
38
38
1C
1C
0C
0E
06
03
ENDCHAR
STARTCHAR parenright
ENCODING 41
SWIDTH 333 0
DWIDTH 13 0
BBX 8 37 2 -8
BITMAP
C0
E0
60
70
38
38
1C
1C
1C
0E
0E
0E
0E
07
07
07
07
07
07
07
07
07
07
07
0F
0E
0E
0E
0C
1C
1C
38
38
30
70
60
C0
ENDCHAR
STARTCHAR asterisk
ENCODING 42
SWIDTH 389 0
DWIDTH 16 0
BBX 11 11 2 18
BITMAP
0E00
0E00
0E00
C660
FFE0
7FE0
0F00
1F00
3B80
71C0
3080
ENDCHAR
STARTCHAR plus
ENCODING 43
SWIDTH 584 0
DWIDTH 23 0
BBX 19 19 2 0
BITMAP
00E000
00E000
00E000
00E000
00E000
00E000
00E000
00E000
FFFFE0
FFFFE0
FFFFE0
00E000
00E000
00E000
00E000
00E000
00E000
00E000
00E000
ENDCHAR
STARTCHAR comma
ENCODING 44
SWIDTH 278 0
DWIDTH 11 0
BBX 5 10 3 -6
BITMAP
F8
F8
F8
F8
18
18
10
30
F0
C0
ENDCHAR
STARTCHAR hyphen
ENCODING 45
SWIDTH 333 0
DWIDTH 13 0
BBX 9 2 2 10
BITMAP
FF80
FF80
ENDCHAR
STARTCHAR period
ENCODING 46
SWIDTH 278 0
DWIDTH 11 0
BBX 5 4 3 0
BITMAP
F8
F8
F8
F8
ENDCHAR
STARTCHAR slash
ENCODING 47
SWIDTH 278 0
DWIDTH 11 0
BBX 11 30 0 -1
BITMAP
0060
0060
00E0
00C0
00C0
01C0
0180
0180
0380
0300
0300
0700
0600
0600
0600
0C00
0C00
0C00
1800
1800
1800
3000
3000
3000
7000
6000
6000
E000
C000
C000
ENDCHAR
STARTCHAR zero
ENCODING 48
SWIDTH 556 0
DWIDTH 22 0
BBX 18 29 2 -1
BITMAP
07F800
0FFC00
1FFE00
3C1F00
780780
780780
700380
F003C0
F003C0
F003C0
E003C0
E001C0
E001C0
E001C0
E001C0
E001C0
E001C0
E001C0
F003C0
F003C0
F003C0
F00380
700380
780780
3C0F00
3E1F00
1FFE00
0FFC00
03F000
ENDCHAR
STARTCHAR one
ENCODING 49
SWIDTH 556 0
DWIDTH 22 0
BBX 10 28 4 0
BITMAP
01C0
01C0
03C0
03C0
0FC0
FFC0
FFC0
FFC0
03C0
03C0
03C0
03C0
03C0
03C0
03C0
03C0
03C0
03C0
03C0
03C0
03C0
03C0
03C0
03C0
03C0
03C0
03C0
03C0
ENDCHAR
STARTCHAR two
ENCODING 50
SWIDTH 556 0
DWIDTH 22 0
BBX 19 28 1 0
BITMAP
03FE00
0FFF00
1FFF80
3E07C0
3C03E0
3801E0
7800E0
7800E0
7800E0
0000E0
0001E0
0001E0
0003C0
000F80
003F00
007E00
01FC00
07F000
0FC000
1F0000
3E0000
3C0000
780000
780000
700000
7FFFE0
FFFFE0
FFFFE0
ENDCHAR
STARTCHAR three
ENCODING 51
SWIDTH 556 0
DWIDTH 22 0
BBX 19 29 1 -1
BITMAP
07FC00
0FFF00
1FFF80
3E07C0
3C03C0
7803C0
7801C0
7001C0
7001C0
0003C0
0003C0
000F80
00FF00
00FE00
00FF80
0007C0
0003E0
0001E0
0001E0
0000E0
F000E0
F001E0
7001E0
7801E0
7C03C0
3F0FC0
1FFF80
0FFE00
03F800
ENDCHAR
STARTCHAR four
ENCODING 52
SWIDTH 556 0
DWIDTH 22 0
BBX 20 28 1 0
BITMAP
000F00
000F00
001F00
003F00
007F00
007F00
00EF00
01EF00
01CF00
038F00
078F00
0F0F00
0E0F00
1C0F00
3C0F00
380F00
700F00
F00F00
FFFFF0
FFFFF0
FFFFF0
000F00
000F00
000F00
000F00
000F00
000F00
000F00
ENDCHAR
STARTCHAR five
ENCODING 53
SWIDTH 556 0
DWIDTH 22 0
BBX 20 29 1 -1
BITMAP
1FFFC0
1FFFC0
1FFFC0
1C0000
1C0000
1C0000
3C0000
3C0000
380000
387000
3BFE00
3FFF00
3FBF80
7C07C0
7803E0
0001E0
0001E0
0000E0
0000F0
0000E0
0000E0
F000E0
7001E0
7801E0
7C03C0
3F1F80
1FFF00
0FFE00
01F800
ENDCHAR
STARTCHAR six
ENCODING 54
SWIDTH 556 0
DWIDTH 22 0
BBX 19 29 2 -1
BITMAP
03FC00
0FFE00
1FFF00
3E0F80
3C0780
7803C0
7003C0
700000
F00000
F00000
E0E000
F7FC00
EFFF00
FFFF80
FC0780
F803C0
F003C0
F001C0
F001C0
F001E0
F001C0
F001C0
7003C0
7803C0
7C0780
3F1F80
1FFF00
0FFC00
03F000
ENDCHAR
STARTCHAR seven
ENCODING 55
SWIDTH 556 0
DWIDTH 22 0
BBX 19 28 2 0
BITMAP
FFFFE0
FFFFE0
FFFFE0
0001C0
000380
000780
000700
000E00
000E00
001C00
003C00
003800
007000
007000
00E000
00E000
01E000
01C000
03C000
038000
038000
078000
078000
070000
0F0000
0F0000
0F0000
0E0000
ENDCHAR
STARTCHAR eight
ENCODING 56
SWIDTH 556 0
DWIDTH 22 0
BBX 20 29 1 -1
BITMAP
03FC00
0FFF00
1FFF80
3E07C0
3C03C0
3801C0
7801C0
7801E0
3801C0
3C03C0
3C03C0
1F9F80
0FFF00
0FFE00
1FFF80
3E07C0
7801E0
7801E0
7000E0
F000E0
F000F0
7000E0
7801E0
7801E0
3C03C0
3F0FC0
1FFF80
07FE00
01F800
ENDCHAR
STARTCHAR nine
ENCODING 57
SWIDTH 556 0
DWIDTH 22 0
BBX 18 29 2 -1
BITMAP
07F800
1FFC00
3FFE00
7C0F00
780780
F00380
F00380
E003C0
E003C0
E003C0
E003C0
E003C0
F003C0
F807C0
7C1FC0
3FFDC0
1FF9C0
07F1C0
0003C0
0003C0
0003C0
000380
F00780
700780
780F00
3E3E00
3FFC00
1FF800
07E000
ENDCHAR
STARTCHAR colon
ENCODING 58
SWIDTH 278 0
DWIDTH 11 0
BBX 5 21 4 0
BITMAP
F8
F8
F8
F8
00
00
00
00
00
00
00
00
00
00
00
00
00
F8
F8
F8
F8
ENDCHAR
STARTCHAR semicolon
ENCODING 59
SWIDTH 278 0
DWIDTH 11 0
BBX 5 27 4 -6
BITMAP
F8
F8
F8
F8
00
00
00
00
00
00
00
00
00
00
00
00
00
F8
F8
F8
F8
18
18
10
30
F0
C0
ENDCHAR
STARTCHAR less
ENCODING 60
SWIDTH 584 0
DWIDTH 23 0
BBX 19 19 2 0
BITMAP
000020
0000E0
0003E0
001FE0
007F00
03FC00
0FE000
3F8000
FC0000
F00000
FC0000
7F0000
1FC000
07F800
00FE00
003FC0
0007E0
0001E0
000060
ENDCHAR
STARTCHAR equal
ENCODING 61
SWIDTH 584 0
DWIDTH 23 0
BBX 19 10 2 4
BITMAP
FFFFE0
FFFFE0
FFFFE0
000000
000000
000000
000000
FFFFE0
FFFFE0
FFFFE0
ENDCHAR
STARTCHAR greater
ENCODING 62
SWIDTH 584 0
DWIDTH 23 0
BBX 20 19 2 0
BITMAP
800000
E00000
FC0000
7F0000
1FE000
07F800
00FE00
003FC0
0007F0
0001F0
0003F0
001FE0
007F00
01FC00
0FF000
3F8000
FE0000
F00000
C00000
ENDCHAR
STARTCHAR question
ENCODING 63
SWIDTH 556 0
DWIDTH 22 0
BBX 17 30 3 0
BITMAP
01E000
0FFC00
1FFE00
3FFF00
780F80
700780
F00780
F00380
F00380
E00380
000780
000F80
000F00
003E00
007C00
00F800
00F000
01E000
01E000
01C000
01C000
01C000
000000
000000
000000
000000
01C000
01C000
01C000
01C000
ENDCHAR
STARTCHAR at
ENCODING 64
SWIDTH 1015 0
DWIDTH 41 0
BBX 37 36 1 -6
BITMAP
0000180000
0003FFC000
001FFFF800
007FEFFC00
00FC007F00
01F0001F80
03C00007C0
07800003C0
0F000001E0
1E007C01F0
1C01FE78F0
3C03FF7070
380783F078
780F01F078
701E01E078
701C01E038
703C01E038
F03C01C078
F03801C078
F03803C070
F03803C0F0
F0380380E0
703C0781E0
703C0F83C0
781E1FC780
381FFBFF00
3C07F1FE00
1E0100F000
1F00000000
0F80000000
07E0000000
03F8002000
00FF8FE000
007FFFE000
000FFFC000
0000F80000
ENDCHAR
STARTCHAR A
ENCODING 65
SWIDTH 667 0
DWIDTH 27 0
BBX 25 29 1 0
BITMAP
003E0000
007E0000
007F0000
007F0000
00F78000
00F78000
00E78000
01E3C000
01E3C000
01C3C000
03C1E000
03C1E000
0381E000
0780F000
0780F000
0F00F000
0F007800
0FFFF800
1FFFF800
1FFFFC00
1E003C00
3C003C00
3C001E00
3C001E00
78001F00
78000F00
78000F00
F0000F80
F0000780
ENDCHAR
STARTCHAR B
ENCODING 66
SWIDTH 667 0
DWIDTH 27 0
BBX 22 29 3 0
BITMAP
FFFF00
FFFFC0
FFFFE0
F003F0
F000F0
F000F0
F00078
F00078
F00078
F00070
F000F0
F001E0
FFFFC0
FFFF80
FFFFC0
FFFFF0
F000F8
F00078
F0003C
F0003C
F0003C
F0003C
F0003C
F00078
F00078
F001F8
FFFFF0
FFFFE0
FFFF00
ENDCHAR
STARTCHAR C
ENCODING 67
SWIDTH 722 0
DWIDTH 29 0
BBX 25 31 2 -1
BITMAP
000E0000
01FFE000
03FFF800
0FFFFC00
1F807C00
1E003E00
3C001E00
3C000F00
78000F00
78000700
70000000
F0000000
F0000000
F0000000
F0000000
F0000000
F0000000
F0000000
F0000000
F0000780
F0000780
78000780
78000F00
7C000F00
3C001F00
3E001E00
1F807E00
0FF1FC00
07FFF800
01FFE000
007F8000
ENDCHAR
STARTCHAR D
ENCODING 68
SWIDTH 722 0
DWIDTH 29 0
BBX 23 29 4 0
BITMAP
FFFE00
FFFF80
FFFFC0
E007E0
E001F0
E000F8
E00078
E0003C
E0003C
E0003C
E0001C
E0001C
E0001E
E0001E
E0001E
E0001E
E0001E
E0001C
E0001C
E0003C
E0003C
E00038
E00078
E000F8
E001F0
E00FE0
FFFFC0
FFFF80
FFFC00
ENDCHAR
STARTCHAR E
ENCODING 69
SWIDTH 667 0
DWIDTH 27 0
BBX 21 29 4 0
BITMAP
FFFFF0
FFFFF0
FFFFF0
E00000
E00000
E00000
E00000
E00000
E00000
E00000
E00000
E00000
FFFFE0
FFFFE0
FFFFE0
FFFFE0
E00000
E00000
E00000
E00000
E00000
E00000
E00000
E00000
E00000
E00000
FFFFF8
FFFFF8
FFFFF8
ENDCHAR
STARTCHAR F
ENCODING 70
SWIDTH 611 0
DWIDTH 24 0
BBX 19 29 4 0
BITMAP
FFFFE0
FFFFE0
FFFFE0
E00000
E00000
E00000
E00000
E00000
E00000
E00000
E00000
E00000
FFFF80
FFFF80
FFFF80
FFFF80
E00000
E00000
E00000
E00000
E00000
E00000
E00000
E00000
E00000
E00000
E00000
E00000
E00000
ENDCHAR
STARTCHAR G
ENCODING 71
SWIDTH 778 0
DWIDTH 31 0
BBX 26 31 2 -1
BITMAP
00060000
00FFF000
03FFF800
07FFFE00
0FC03F00
1F000F00
3E000780
3C000780
780003C0
780003C0
F0000000
F0000000
F0000000
F0000000
E0000000
E003FFC0
F003FFC0
F003FFC0
F00001C0
F00001C0
F00001C0
780001C0
780003C0
7C0003C0
3C0007C0
1E000FC0
1F801FC0
0FF9FDC0
07FFF8C0
01FFE0C0
003F8000
ENDCHAR
STARTCHAR H
ENCODING 72
SWIDTH 722 0
DWIDTH 29 0
BBX 23 29 3 0
BITMAP
F0001E
F0001E
F0001E
F0001E
F0001E
F0001E
F0001E
F0001E
F0001E
F0001E
F0001E
F0001E
FFFFFE
FFFFFE
FFFFFE
FFFFFE
F0001E
F0001E
F0001E
F0001E
F0001E
F0001E
F0001E
F0001E
F0001E
F0001E
F0001E
F0001E
F0001E
ENDCHAR
STARTCHAR I
ENCODING 73
SWIDTH 278 0
DWIDTH 11 0
BBX 4 29 4 0
BITMAP
F0
F0
F0
F0
F0
F0
F0
F0
F0
F0
F0
F0
F0
F0
F0
F0
F0
F0
F0
F0
F0
F0
F0
F0
F0
F0
F0
F0
F0
ENDCHAR
STARTCHAR J
ENCODING 74
SWIDTH 500 0
DWIDTH 20 0
BBX 16 30 1 -1
BITMAP
000F
000F
000F
000F
000F
000F
000F
000F
000F
000F
000F
000F
000F
000F
000F
000F
000F
000F
000F
000F
E00F
E00F
F00F
F00F
F00F
F81E
7C3E
3FFC
1FF8
07E0
ENDCHAR
STARTCHAR K
ENCODING 75
SWIDTH 667 0
DWIDTH 27 0
BBX 23 29 3 0
BITMAP
F0003E
F0007C
F000F8
F001F0
F003E0
F007C0
F00F80
F01F00
F03E00
F07C00
F0F800
F1F000
F3F000
F7F800
FF7800
FE3C00
FC3E00
F81E00
F00F00
F00F80
F00780
F003C0
F003E0
F001F0
F000F0
F000F8
F0007C
F0003C
F0001E
ENDCHAR
STARTCHAR L
ENCODING 76
SWIDTH 556 0
DWIDTH 22 0
BBX 18 29 3 0
BITMAP
F00000
F00000
F00000
F00000
F00000
F00000
F00000
F00000
F00000
F00000
F00000
F00000
F00000
F00000
F00000
F00000
F00000
F00000
F00000
F00000
F00000
F00000
F00000
F00000
F00000
F00000
FFFFC0
FFFFC0
FFFFC0
ENDCHAR
STARTCHAR M
ENCODING 77
SWIDTH 833 0
DWIDTH 33 0
BBX 27 29 3 0
BITMAP
F80003E0
FC0003E0
FC0007E0
FC0007E0
FE0007E0
FE000FE0
FE000EE0
FF000EE0
F7001EE0
F7001CE0
F3801CE0
F3803CE0
F38038E0
F1C038E0
F1C078E0
F1C070E0
F0E070E0
F0E0F0E0
F0F0E0E0
F070E0E0
F071E0E0
F079C0E0
F039C0E0
F03BC0E0
F03F80E0
F01F80E0
F01F80E0
F01F00E0
F00F00E0
ENDCHAR
STARTCHAR N
ENCODING 78
SWIDTH 722 0
DWIDTH 29 0
BBX 23 29 3 0
BITMAP
F0001E
F8001E
FC001E
FC001E
FE001E
FF001E
FF001E
F7801E
F3C01E
F3C01E
F1E01E
F1F01E
F0F01E
F0781E
F0781E
F03C1E
F01E1E
F01E1E
F00F1E
F0079E
F0079E
F003DE
F003FE
F001FE
F000FE
F000FE
F0007E
F0003E
F0003E
ENDCHAR
STARTCHAR O
ENCODING 79
SWIDTH 778 0
DWIDTH 31 0
BBX 28 31 2 -1
BITMAP
000E0000
00FFE000
03FFF800
07FFFE00
1F803F00
1F001F80
3E000780
7C0007C0
780003C0
F00001E0
F00001E0
F00001E0
F00000E0
E00000F0
E00000F0
E00000F0
E00000F0
E00000F0
E00000E0
F00000E0
F00001E0
F00001E0
780003C0
780003C0
3C000780
3E000F80
1F803F00
0FF1FE00
07FFFC00
01FFF000
003F8000
ENDCHAR
STARTCHAR P
ENCODING 80
SWIDTH 667 0
DWIDTH 27 0
BBX 21 29 4 0
BITMAP
FFFF00
FFFFC0
FFFFE0
E003E0
E001F0
E000F0
E00078
E00078
E00078
E00078
E000F0
E000F0
E001F0
FFFFE0
FFFFC0
FFFF80
FFFC00
E00000
E00000
E00000
E00000
E00000
E00000
E00000
E00000
E00000
E00000
E00000
E00000
ENDCHAR
STARTCHAR Q
ENCODING 81
SWIDTH 778 0
DWIDTH 31 0
BBX 28 32 2 -2
BITMAP
000E0000
00FFE000
03FFF800
07FFFE00
1F803F00
1F001F80
3E000780
7C0007C0
780003C0
F00001E0
F00001E0
F00001E0
F00000E0
E00000F0
E00000F0
E00000F0
E00000F0
E00000F0
E00000E0
F00001E0
F00001E0
F00001E0
780043C0
7800E3C0
3C00FF80
3E007F80
1F803F00
0FF1FF00
07FFFF80
01FFF3E0
003F81E0
000000C0
ENDCHAR
STARTCHAR R
ENCODING 82
SWIDTH 722 0
DWIDTH 29 0
BBX 23 29 4 0
BITMAP
FFFF80
FFFFE0
FFFFF0
E001F8
E0007C
E0003C
E0003C
E0003C
E0003C
E0003C
E0003C
E00078
E000F0
FFFFE0
FFFFC0
FFFFE0
E007F0
E000F8
E00078
E00038
E00038
E00038
E00038
E00038
E00038
E0003C
E0003C
E0003C
E0003E
ENDCHAR
STARTCHAR S
ENCODING 83
SWIDTH 667 0
DWIDTH 27 0
BBX 23 31 2 -1
BITMAP
007800
07FF80
0FFFE0
1FFFF0
3E00F8
7C0078
780038
78003C
78003C
780000
780000
7C0000
3F8000
3FF000
0FFF00
03FFE0
007FF0
0007F8
0000FC
00003C
00001E
E0001E
F0001E
F0001E
F0001C
78003C
7C007C
3FC3F8
1FFFF0
07FFC0
00FE00
ENDCHAR
STARTCHAR T
ENCODING 84
SWIDTH 611 0
DWIDTH 24 0
BBX 23 29 1 0
BITMAP
FFFFFE
FFFFFE
FFFFFE
007800
007800
007800
007800
007800
007800
007800
007800
007800
007800
007800
007800
007800
007800
007800
007800
007800
007800
007800
007800
007800
007800
007800
007800
007800
007800
ENDCHAR
STARTCHAR U
ENCODING 85
SWIDTH 722 0
DWIDTH 29 0
BBX 23 30 3 -1
BITMAP
F0001E
F0001E
F0001E
F0001E
F0001E
F0001E
F0001E
F0001E
F0001E
F0001E
F0001E
F0001E
F0001E
F0001E
F0001E
F0001E
F0001E
F0001E
F0001E
F0001E
F0001E
F0001E
70001E
78003C
7C003C
3E00F8
3FC7F8
0FFFF0
07FFC0
00FE00
ENDCHAR
STARTCHAR V
ENCODING 86
SWIDTH 667 0
DWIDTH 27 0
BBX 25 29 1 0
BITMAP
F0000780
78000F00
78000F00
78000F00
3C001E00
3C001E00
1E001C00
1E003C00
1E003C00
0F003800
0F007800
0F007800
07807000
0780F000
0780F000
03C0E000
03C1E000
01C1E000
01E1C000
01E3C000
00E3C000
00F38000
00F78000
00778000
007F0000
007F0000
003F0000
003E0000
003E0000
ENDCHAR
STARTCHAR W
ENCODING 87
SWIDTH 944 0
DWIDTH 38 0
BBX 36 29 1 0
BITMAP
F000F000F0
F000F000F0
7801F801E0
7801F801E0
7801F801E0
7803FC01E0
3C03FC03C0
3C039C03C0
3C039C03C0
3C079E03C0
1E071E0380
1E070E0780
1E070F0780
1E0F0F0780
0E0E070700
0F0E070F00
0F1E078F00
0F1E078F00
071C038E00
079C03CE00
07BC03DE00
07B801DE00
03B801DC00
03F801FC00
03F801FC00
03F000FC00
01F000F800
01F000F800
01F0007800
ENDCHAR
STARTCHAR X
ENCODING 88
SWIDTH 667 0
DWIDTH 27 0
BBX 25 29 1 0
BITMAP
78000F00
3C001E00
3E003E00
1E003C00
0F007800
0F80F800
0780F000
03C1E000
03E3C000
01E3C000
00F78000
00FF0000
007F0000
003E0000
003E0000
007F0000
00FF0000
00F78000
01E7C000
03E3C000
03C1E000
0781F000
0F80F000
0F007800
1E007C00
3E003E00
3C001E00
78001F00
F8000F80
ENDCHAR
STARTCHAR Y
ENCODING 89
SWIDTH 667 0
DWIDTH 27 0
BBX 25 29 1 0
BITMAP
F8000780
78000F00
7C001F00
3C001E00
3E003E00
1F003C00
0F007800
0F80F800
0780F000
03C1E000
03E1E000
01E3C000
00F3C000
00F78000
007F0000
007F0000
003E0000
001E0000
001C0000
001C0000
001C0000
001C0000
001C0000
001C0000
001C0000
001C0000
001C0000
001C0000
001C0000
ENDCHAR
STARTCHAR Z
ENCODING 90
SWIDTH 611 0
DWIDTH 24 0
BBX 22 29 1 0
BITMAP
7FFFFC
7FFFFC
7FFFFC
00007C
000078
0000F0
0001F0
0003E0
0007C0
000780
000F80
001F00
003E00
003C00
007C00
00F800
01F000
03E000
03C000
07C000
0F8000
1F0000
1E0000
3E0000
7C0000
F80000
FFFFFC
FFFFFC
FFFFFC
ENDCHAR
STARTCHAR bracketleft
ENCODING 91
SWIDTH 278 0
DWIDTH 11 0
BBX 7 37 3 -8
BITMAP
FE
FE
FE
E0
E0
E0
E0
E0
E0
E0
E0
E0
E0
E0
E0
E0
E0
E0
E0
E0
E0
E0
E0
E0
E0
E0
E0
E0
E0
E0
E0
E0
E0
E0
E0
FE
FE
ENDCHAR
STARTCHAR backslash
ENCODING 92
SWIDTH 278 0
DWIDTH 11 0
BBX 11 30 0 -1
BITMAP
C000
C000
E000
6000
6000
7000
3000
3000
3800
1800
1800
1C00
0C00
0C00
0E00
0600
0600
0600
0300
0300
0300
0180
0180
0180
01C0
00C0
00C0
00E0
0060
0060
ENDCHAR
STARTCHAR bracketright
ENCODING 93
SWIDTH 277 0
DWIDTH 11 0
BBX 7 37 1 -8
BITMAP
FE
FE
FE
0E
0E
0E
0E
0E
0E
0E
0E
0E
0E
0E
0E
0E
0E
0E
0E
0E
0E
0E
0E
0E
0E
0E
0E
0E
0E
0E
0E
0E
0E
0E
0E
FE
FE
ENDCHAR
STARTCHAR asciicircum
ENCODING 94
SWIDTH 469 0
DWIDTH 19 0
BBX 15 15 2 13
BITMAP
0380
07C0
07C0
0EC0
0EE0
0CE0
1C70
1870
3830
3838
7038
701C
601C
E00C
E00E
ENDCHAR
STARTCHAR underscore
ENCODING 95
SWIDTH 556 0
DWIDTH 22 0
BBX 24 2 -1 -7
BITMAP
FFFFFF
FFFFFF
ENDCHAR
STARTCHAR grave
ENCODING 96
SWIDTH 333 0
DWIDTH 13 0
BBX 8 6 1 24
BITMAP
F0
78
3C
1C
0E
07
ENDCHAR
STARTCHAR a
ENCODING 97
SWIDTH 556 0
DWIDTH 22 0
BBX 19 23 2 -1
BITMAP
008000
0FFC00
3FFF00
3FFF00
780F80
700780
700380
000380
000780
000F80
03FF80
1FFF80
7FC380
F80380
F00380
E00380
E00780
E00780
F00F80
F83F80
7FFBE0
3FF3E0
0F81E0
ENDCHAR
STARTCHAR b
ENCODING 98
SWIDTH 556 0
DWIDTH 22 0
BBX 19 30 2 -1
BITMAP
E00000
E00000
E00000
E00000
E00000
E00000
E00000
E06000
E3FC00
E7FF00
EFFF80
FC0F80
F807C0
F803C0
F001C0
F001E0
F001E0
F001E0
E001E0
E001E0
F001E0
F001E0
F001C0
F003C0
F803C0
FC0780
FF1F80
EFFF00
E7FE00
01F800
ENDCHAR
STARTCHAR c
ENCODING 99
SWIDTH 500 0
DWIDTH 20 0
BBX 18 23 1 -1
BITMAP
004000
07FC00
0FFE00
1FFF00
3C0780
380380
7803C0
7003C0
700000
F00000
F00000
F00000
F00000
F00000
F00000
7001C0
7803C0
7803C0
3C0780
3F0F80
1FFF00
0FFE00
01F000
ENDCHAR
STARTCHAR d
ENCODING 100
SWIDTH 556 0
DWIDTH 22 0
BBX 19 30 1 -1
BITMAP
0001E0
0001E0
0001E0
0001E0
0001E0
0001E0
0001E0
0001E0
07F9E0
1FFDE0
3FFFE0
3E07E0
7803E0
7803E0
F001E0
F001E0
F001E0
F001E0
F001E0
F001E0
F001E0
F001E0
F001E0
7803E0
7803E0
3C07E0
3F1FE0
1FFEE0
0FFCE0
03F000
ENDCHAR
STARTCHAR e
ENCODING 101
SWIDTH 556 0
DWIDTH 22 0
BBX 19 23 2 -1
BITMAP
004000
07FC00
1FFE00
3FFF00
7C0F80
780780
F003C0
F001C0
E001C0
E001C0
FFFFC0
FFFFE0
FFFFE0
E00000
E00000
E00000
F003C0
7003C0
780780
3E1F00
1FFF00
0FFC00
03F000
ENDCHAR
STARTCHAR f
ENCODING 102
SWIDTH 278 0
DWIDTH 11 0
BBX 9 29 1 0
BITMAP
0F80
1F80
1F80
1C00
1C00
1C00
1C00
1C00
FF80
FF80
FF80
1C00
1C00
1C00
1C00
1C00
1C00
1C00
1C00
1C00
1C00
1C00
1C00
1C00
1C00
1C00
1C00
1C00
1C00
ENDCHAR
STARTCHAR g
ENCODING 103
SWIDTH 556 0
DWIDTH 22 0
BBX 19 30 1 -9
BITMAP
07F9E0
0FFDE0
1FFFE0
3C0FE0
7807E0
7803E0
7003E0
F001E0
F001E0
F001E0
F001E0
F001E0
F001E0
F001E0
7001E0
7803E0
7803E0
3C07E0
3F1FE0
1FFDC0
0FF9C0
03E1C0
0001C0
7001C0
7803C0
780780
3E0F80
1FFF00
0FFE00
00F000
ENDCHAR
STARTCHAR h
ENCODING 104
SWIDTH 556 0
DWIDTH 22 0
BBX 16 29 3 0
BITMAP
E000
E000
E000
E000
E000
E000
E000
E040
E3FC
EFFE
FF3F
F80F
F807
F007
F007
E007
E007
E007
E007
E007
E007
E007
E007
E007
E007
E007
E007
E007
E007
ENDCHAR
STARTCHAR i
ENCODING 105
SWIDTH 222 0
DWIDTH 9 0
BBX 3 29 3 0
BITMAP
E0
E0
E0
E0
00
00
00
00
E0
E0
E0
E0
E0
E0
E0
E0
E0
E0
E0
E0
E0
E0
E0
E0
E0
E0
E0
E0
E0
ENDCHAR
STARTCHAR j
ENCODING 106
SWIDTH 222 0
DWIDTH 9 0
BBX 7 38 -1 -9
BITMAP
0E
0E
0E
0E
00
00
00
00
0E
0E
0E
0E
0E
0E
0E
0E
0E
0E
0E
0E
0E
0E
0E
0E
0E
0E
0E
0E
0E
0E
0E
0E
0E
0E
1E
FE
FC
E0
ENDCHAR
STARTCHAR k
ENCODING 107
SWIDTH 500 0
DWIDTH 20 0
BBX 18 29 2 0
BITMAP
F00000
F00000
F00000
F00000
F00000
F00000
F00000
F00000
F00F00
F01E00
F03C00
F07800
F0F000
F1E000
F3C000
F7C000
FFC000
FFE000
FDF000
F8F000
F07800
F07800
F03C00
F01E00
F01E00
F00F00
F00F80
F00780
F003C0
ENDCHAR
STARTCHAR l
ENCODING 108
SWIDTH 222 0
DWIDTH 9 0
BBX 3 29 3 0
BITMAP
E0
E0
E0
E0
E0
E0
E0
E0
E0
E0
E0
E0
E0
E0
E0
E0
E0
E0
E0
E0
E0
E0
E0
E0
E0
E0
E0
E0
E0
ENDCHAR
STARTCHAR m
ENCODING 109
SWIDTH 833 0
DWIDTH 33 0
BBX 27 22 3 0
BITMAP
00C00400
E7F87F80
EFFCFFC0
FF7FF7E0
F81F81E0
F00F00E0
F00F00E0
E00E00E0
E00E00E0
E00E00E0
E00E00E0
E00E00E0
E00E00E0
E00E00E0
E00E00E0
E00E00E0
E00E00E0
E00E00E0
E00E00E0
E00E00E0
E00E00E0
E00E00E0
ENDCHAR
STARTCHAR n
ENCODING 110
SWIDTH 556 0
DWIDTH 22 0
BBX 16 22 3 0
BITMAP
0040
E3FC
EFFE
EF3F
FC0F
F807
F007
F007
E007
E007
E007
E007
E007
E007
E007
E007
E007
E007
E007
E007
E007
E007
ENDCHAR
STARTCHAR o
ENCODING 111
SWIDTH 556 0
DWIDTH 22 0
BBX 19 23 1 -1
BITMAP
006000
07FC00
0FFF00
1FFF80
3E07C0
3C03C0
7801E0
7801E0
7000E0
7000E0
F000E0
F000E0
F000E0
F000E0
7000E0
7001E0
7801E0
7803C0
3C07C0
1F0F80
1FFF00
07FE00
01F800
ENDCHAR
STARTCHAR p
ENCODING 112
SWIDTH 556 0
DWIDTH 22 0
BBX 19 31 2 -9
BITMAP
006000
E3FC00
E7FE00
EFFF00
FC0F80
F807C0
F803C0
F001C0
F001E0
F001E0
F001E0
F001E0
F001E0
F001E0
F001E0
F001C0
F003C0
F803C0
FC0780
FF1F80
FFFF00
F7FE00
F1F800
F00000
F00000
F00000
F00000
F00000
F00000
F00000
F00000
ENDCHAR
STARTCHAR q
ENCODING 113
SWIDTH 556 0
DWIDTH 22 0
BBX 19 31 1 -9
BITMAP
004000
07F8E0
1FFEE0
1FFFE0
3E07E0
7803E0
7803E0
7001E0
F001E0
F001E0
F001E0
F001E0
F001E0
F001E0
F001E0
F001E0
7803E0
7803E0
7C07E0
3F1FE0
1FFFE0
0FFDE0
03F1E0
0001E0
0001E0
0001E0
0001E0
0001E0
0001E0
0001E0
0001E0
ENDCHAR
STARTCHAR r
ENCODING 114
SWIDTH 333 0
DWIDTH 13 0
BBX 10 22 3 0
BITMAP
0080
E3C0
EFC0
EFC0
FE00
F800
F000
F000
E000
E000
E000
E000
E000
E000
E000
E000
E000
E000
E000
E000
E000
E000
ENDCHAR
STARTCHAR s
ENCODING 115
SWIDTH 500 0
DWIDTH 20 0
BBX 17 22 1 -1
BITMAP
0FFC00
1FFE00
3FFF00
780F00
780700
700700
780000
780000
7E0000
3FF000
0FFC00
03FF00
003F80
000780
000380
F00380
700380
780780
7E1F00
3FFF00
1FFC00
07F000
ENDCHAR
STARTCHAR t
ENCODING 116
SWIDTH 278 0
DWIDTH 11 0
BBX 9 28 1 -1
BITMAP
3C00
3C00
3C00
3C00
3C00
3C00
FF80
FF80
FF80
3C00
3C00
3C00
3C00
3C00
3C00
3C00
3C00
3C00
3C00
3C00
3C00
3C00
3C00
3C00
3C00
3F80
1F80
0F80
ENDCHAR
STARTCHAR u
ENCODING 117
SWIDTH 556 0
DWIDTH 22 0
BBX 16 22 3 -1
BITMAP
E007
E007
E007
E007
E007
E007
E007
E007
E007
E007
E007
E007
E007
E007
E007
E00F
E00F
F01F
F83F
7FF7
3FE7
1F80
ENDCHAR
STARTCHAR v
ENCODING 118
SWIDTH 500 0
DWIDTH 20 0
BBX 18 21 1 0
BITMAP
E001C0
F003C0
F00380
700780
780780
780700
380F00
3C0F00
3C0E00
1C1E00
1E1C00
1E1C00
0E3C00
0F3800
0F3800
077000
07F000
03F000
03E000
03E000
01E000
ENDCHAR
STARTCHAR w
ENCODING 119
SWIDTH 722 0
DWIDTH 29 0
BBX 28 21 0 0
BITMAP
F00F00F0
700F80F0
780F80F0
781F80E0
381F81E0
381FC1E0
3C1DC1C0
3C39C1C0
1C39C3C0
1C39E3C0
1E38E380
0E70E380
0E70E780
0E70F700
0F707700
07E07700
07E07E00
07E07E00
03E03E00
03C03E00
03C03C00
ENDCHAR
STARTCHAR x
ENCODING 120
SWIDTH 500 0
DWIDTH 20 0
BBX 18 21 1 0
BITMAP
F00380
780780
3C0F00
3C0E00
1E1E00
0E3C00
0F3800
07F800
03F000
01E000
01E000
03F000
03F000
077800
0F3C00
1E3C00
1C1E00
3C0F00
780F00
700780
F003C0
ENDCHAR
STARTCHAR y
ENCODING 121
SWIDTH 500 0
DWIDTH 20 0
BBX 18 30 1 -9
BITMAP
F003C0
F003C0
700380
700780
780700
380700
380F00
3C0E00
1C0E00
1C1E00
1E1C00
0E3C00
0E3C00
0F3800
077800
077000
07F000
03F000
03E000
03E000
01E000
01C000
03C000
038000
038000
078000
7F0000
7F0000
7E0000
380000
ENDCHAR
STARTCHAR z
ENCODING 122
SWIDTH 500 0
DWIDTH 20 0
BBX 17 21 1 0
BITMAP
7FFF80
7FFF80
7FFF80
000F00
001E00
001E00
003C00
007800
00F000
01E000
03E000
03C000
078000
0F0000
1E0000
3C0000
7C0000
780000
FFFF80
FFFF80
FFFF80
ENDCHAR
STARTCHAR braceleft
ENCODING 123
SWIDTH 334 0
DWIDTH 13 0
BBX 9 37 2 -8
BITMAP
0780
0F80
1F00
1C00
1C00
1C00
1C00
1C00
1C00
1C00
1C00
1C00
1C00
1C00
1C00
3C00
7800
F000
E000
F000
7800
3800
3C00
1C00
1C00
1C00
1C00
1C00
1C00
1C00
1C00
1C00
1C00
1C00
1E00
0F80
0F80
ENDCHAR
STARTCHAR bar
ENCODING 124
SWIDTH 260 0
DWIDTH 10 0
BBX 2 37 4 -8
BITMAP
C0
C0
C0
C0
C0
C0
C0
C0
C0
C0
C0
C0
C0
C0
C0
C0
C0
C0
C0
C0
C0
C0
C0
C0
C0
C0
C0
C0
C0
C0
C0
C0
C0
C0
C0
C0
C0
ENDCHAR
STARTCHAR braceright
ENCODING 125
SWIDTH 334 0
DWIDTH 13 0
BBX 9 37 1 -8
BITMAP
F000
F800
7C00
1C00
1C00
1C00
1C00
1C00
1C00
1C00
1C00
1C00
1C00
1E00
1E00
0E00
0F00
0780
0380
0780
0F00
0E00
0E00
1E00
1C00
1C00
1C00
1C00
1C00
1C00
1C00
1C00
1C00
1C00
3C00
FC00
F800
ENDCHAR
STARTCHAR asciitilde
ENCODING 126
SWIDTH 584 0
DWIDTH 23 0
BBX 17 7 3 11
BITMAP
080000
3E0000
7F8180
E7E180
C1FF80
C07F00
003F00
ENDCHAR
STARTCHAR degree
ENCODING 176
SWIDTH 606 0
DWIDTH 24 0
BBX 12 12 6 15
BITMAP
1F80
3FE0
70E0
E070
C030
C030
E030
E070
70E0
7FE0
3FC0
0E00
ENDCHAR
ENDFONT
